# xmcd
#
# Track frame offsets:
#	197
#	14197
#	31767
#	46930
#	62282
#	79205
#	94267
#	107902
#	122700
#	141052
#	156042
#	170465
#	180167
#	196472
#	208255
#	220720
#	234125
#	245225
#	257175
#	271727
#	283165
#	298325
#	311705
#	324880
#	340297
#
# Disc length: 4723 seconds
# Revision: 3
# Processed by: cddbd v1.5.2PL0 Copyright (c) Steve Scherf et al.
# Submitted via: dBpowerAMP V12.0
#
DISCID=72127119
DTITLE=Various Artist - Mississippi Delta Blues - Blow My Blues Away Volume 2
DYEAR=1994
DGENRE=Blues
TTITLE0=Joe Callicott - Lonesome Katy Blues
TTITLE1=Joe Callicott - Come Home To Me Baby
TTITLE2=Joe Callicott - Fare You Well Baby Blues
TTITLE3=Joe Callicott - Country Blues
TTITLE4=Joe Callicott - Laughing To Keep From Crying
TTITLE5=Joe Callicott - Love Me Baby Blues
TTITLE6=Joe Callicott - I Rolled And I Tumbled
TTITLE7=Joe Callicott - Old Bo Weevil
TTITLE8=Joe Callicott - Up Town Blues
TTITLE9=Joe Callicott - Traveling Mama Blues
TTITLE10=Joe Callicott - Fare Thee Well Blues
TTITLE11=R.L. Burnside - Poor Black Mattie
TTITLE12=R.L. Burnside - Long Haired Doney
TTITLE13=R.L. Burnside - Going Down South
TTITLE14=R.L. Burnside - Skinny Woman
TTITLE15=R.L. Burnside - I's Be Troubled
TTITLE16=R.L. Burnside - Catfish Blues
TTITLE17=R.L. Burnside - See My Jumper Hangin' Out On The Line
TTITLE18=R.L. Burnside - I Rolled And I Tumbled
TTITLE19=R.L. Burnside - Walking Blues
TTITLE20=R.L. Burnside - Nightmare Blues
TTITLE21=Houston Stackhouse, Robert Nighthawk, James "Peck" Curtis - Cool Water Blues
TTITLE22=Houston Stackhouse, Robert Nighthawk, James "Peck" Curtis - Big Road Blues
TTITLE23=Houston Stackhouse, Robert Nighthawk, James "Peck" Curtis - Right Around The Corner
TTITLE24=Houston Stackhouse, Robert Nighthawk, James "Peck" Curtis - Canned Heat
EXTD=
EXTT0=
EXTT1=
EXTT2=
EXTT3=
EXTT4=
EXTT5=
EXTT6=
EXTT7=
EXTT8=
EXTT9=
EXTT10=
EXTT11=
EXTT12=
EXTT13=
EXTT14=
EXTT15=
EXTT16=
EXTT17=
EXTT18=
EXTT19=
EXTT20=
EXTT21=
EXTT22=
EXTT23=
EXTT24=
PLAYORDER=
